<?xml version="1.0" encoding="UTF-8"?>
<svg width="53px" height="47px" viewBox="0 0 53 47" version="1.1" xmlns="http://www.w3.org/2000/svg" xmlns:xlink="http://www.w3.org/1999/xlink">
    <!-- Generator: Sketch 50.2 (55047) - http://www.bohemiancoding.com/sketch -->
    <title>cart</title>
    <desc>Created with Sketch.</desc>
    <defs></defs>
    <g id="Page-1" stroke="none" stroke-width="1" fill="none" fill-rule="evenodd">
        <g id="cart" transform="translate(-15.000000, -15.000000)">
            <rect id="Rectangle-6-Copy-2" x="0" y="0" width="80" height="77"></rect>
            <circle id="Oval-1329" stroke="#FFFFFF" stroke-width="2" stroke-linecap="round" stroke-linejoin="round" cx="25" cy="58" r="3"></circle>
            <circle id="Oval-1329" stroke="#FFFFFF" stroke-width="2" stroke-linecap="round" stroke-linejoin="round" cx="50" cy="58" r="3"></circle>
            <polyline id="Rectangle-1449" stroke="#FFFFFF" stroke-width="2" stroke-linecap="round" stroke-linejoin="round" points="49.507991 27 59 27 57 49 18 45 16 27 26.75345 27"></polyline>
            <polyline id="Path-3188" stroke="#FFFFFF" stroke-width="2" stroke-linecap="round" stroke-linejoin="round" points="57 48.4939416 57 52.0643462 19.2736947 52.0643462"></polyline>
            <polyline id="Path-3189" stroke="#FFFFFF" stroke-width="2" stroke-linecap="round" stroke-linejoin="round" points="58.9263446 28.9471388 59.594948 23 66.6128767 23"></polyline>
            <circle id="Oval-1337" stroke="#FFFFFF" stroke-width="2" fill-opacity="0.2" fill="#FFFFFF" fill-rule="nonzero" stroke-linecap="round" stroke-linejoin="round" cx="38" cy="27" r="11"></circle>
            <path d="M42.9168621,31.1750653 L38.7746157,27.0339534 L42.9168621,22.8928416 C43.1210456,22.6884946 43.1210456,22.3576072 42.9168621,22.1532602 C42.7124694,21.9489133 42.3812989,21.9489133 42.1771155,22.1532602 L38.0350783,26.2943721 L33.8930411,22.1534694 C33.6886485,21.9491224 33.3576872,21.9491224 33.1532945,22.1534694 C32.9489018,22.3578164 32.9489018,22.6887038 33.1532945,22.8930508 L37.2953317,27.0339534 L33.1535037,31.1750653 C32.949111,31.3794123 32.949111,31.7105088 33.1535037,31.9146466 C33.3578964,32.1187845 33.6888577,32.1187845 33.8932503,31.9146466 L38.0350783,27.7733256 L42.1771155,31.9146466 C42.3815081,32.1187845 42.7126786,32.1187845 42.9168621,31.9146466 C43.1210456,31.7102996 43.1210456,31.3792031 42.9168621,31.1750653 Z" id="Shape" stroke="#FFFFFF" fill="#FFFFFF" fill-rule="nonzero"></path>
        </g>
    </g>
</svg>