<svg height="44" viewBox="0 0 45 44" width="45" xmlns="http://www.w3.org/2000/svg"><g fill="none" fill-rule="evenodd" stroke="#fff" stroke-width="1.7" transform="translate(1 2)"><path d="m29 16.6240409v23.3759591h-29v-23.3759591-16.6240409h21.3235294l7.6764706 7.67263427z" stroke-linecap="round"/><path d="m21.1621622 7.84313725h7.8378378l-7.8378378-7.84313725z" stroke-linecap="round"/><path d="m4.702703 13.333333h19.594595v21.960784h-19.594595z" stroke-linecap="round"/><g stroke-linecap="square"><path d="m10.1891892 18.85h8.6356722"/><path d="m10.1891892 22.85h8.6356722"/><path d="m10.1891892 26.85h8.6356722"/><path d="m10.1891892 30.85h8.6356722"/></g><g stroke-linecap="round" transform="matrix(-.93969262 -.34202014 -.34202014 .93969262 44.005358 19.472643)"><path d="m0 2.99253976c0-1.65273407 1.34651712-2.99253976 3-2.99253976 1.65685425 0 3 1.35292554 3 2.99253976v15.00746024h-6z"/><path d="m0 18h6l-3 5z"/></g></g></svg>